<?xml version="1.0" encoding="UTF-8" standalone="no"?>
<!-- Created with Inkscape (http://www.inkscape.org/) -->

<svg
   xmlns:dc="http://purl.org/dc/elements/1.1/"
   xmlns:cc="http://creativecommons.org/ns#"
   xmlns:rdf="http://www.w3.org/1999/02/22-rdf-syntax-ns#"
   xmlns:svg="http://www.w3.org/2000/svg"
   xmlns="http://www.w3.org/2000/svg"
   xmlns:sodipodi="http://sodipodi.sourceforge.net/DTD/sodipodi-0.dtd"
   xmlns:inkscape="http://www.inkscape.org/namespaces/inkscape"
   width="21.999971cm"
   height="9.7954464cm"
   viewBox="0 0 219.99972 97.954461"
   version="1.1"
   id="svg8"
   inkscape:version="0.92.3 (2405546, 2018-03-11)"
   sodipodi:docname="cyber.svg">
  <defs
     id="defs2" />
  <sodipodi:namedview
     id="base"
     pagecolor="#1d1b1b"
     bordercolor="#666666"
     borderopacity="1.0"
     inkscape:pageopacity="1"
     inkscape:pageshadow="2"
     inkscape:zoom="0.7"
     inkscape:cx="243.69249"
     inkscape:cy="198.24137"
     inkscape:document-units="mm"
     inkscape:current-layer="layer2"
     showgrid="false"
     inkscape:window-width="1920"
     inkscape:window-height="1180"
     inkscape:window-x="0"
     inkscape:window-y="20"
     inkscape:window-maximized="1"
     units="cm"
     fit-margin-top="1"
     fit-margin-right="1"
     fit-margin-bottom="1"
     fit-margin-left="1"
     inkscape:pagecheckerboard="false" />
  <metadata
     id="metadata5">
    <rdf:RDF>
      <cc:Work
         rdf:about="">
        <dc:format>image/svg+xml</dc:format>
        <dc:type
           rdf:resource="http://purl.org/dc/dcmitype/StillImage" />
        <dc:title></dc:title>
      </cc:Work>
    </rdf:RDF>
  </metadata>
  <g
     inkscape:label="Cyber"
     inkscape:groupmode="layer"
     id="layer1"
     transform="translate(6.6112126,-17.372012)">
    <path
       style="font-style:normal;font-variant:normal;font-weight:normal;font-stretch:normal;font-size:medium;line-height:125%;font-family:'Doctor Glitch';-inkscape-font-specification:'Doctor Glitch';letter-spacing:0px;word-spacing:0px;fill:#00ffff;fill-opacity:1;stroke:none;stroke-width:0.28140527px;stroke-linecap:butt;stroke-linejoin:miter;stroke-opacity:1"
       d="m 24.494183,56.836833 c -0.193466,0.123115 -0.422107,0.184673 -0.685925,0.184673 h -0.342963 c -1.494965,0 -3.183396,0.167084 -5.065294,0.501253 -3.535154,1.002506 -5.979863,2.11054 -7.334126,3.3241 v 0.184672 h 3.482391 c 0.228642,0 0.342963,0.114321 0.342963,0.342963 -2.673351,1.424614 -5.0565023,3.983643 -7.1494535,7.677088 l 0.3693444,0.184672 h 1.7411952 c 0.2286409,0 0.3429629,0.114321 0.3429629,0.342963 v 0.15829 c -1.6356679,2.884404 -2.5678234,5.971069 -2.7964652,9.259993 0,0.457283 -0.8705976,0.685925 -2.6117929,0.685925 l -0.3429627,-0.15829 c -0.1758783,0.105527 -0.5276349,0.15829 -1.0552698,0.15829 v 0.527635 c 0,0.228642 0.1143209,0.342963 0.3429627,0.342963 h 3.1394278 c 0.2286418,0 0.3429627,0.123115 0.3429627,0.369344 0,0.228642 -0.1143209,0.342963 -0.3429627,0.342963 H 4.9716922 v 0.527635 h 2.2424484 c 0.1582901,3.183397 0.9145671,6.322825 2.2688301,9.418283 L 8.6123731,91.370539 H 6.8711779 v 0.184672 c 0,0.615574 1.0464756,2.356769 3.1394281,5.223586 v 0.184672 H 9.6676429 L 8.6123731,97.148141 C 8.4013194,97.025026 8.2342347,96.963469 8.1111199,96.963469 c -0.2110531,0 -0.3341685,0.114321 -0.3693444,0.342962 0,0.175879 0.237436,0.351757 0.7123071,0.527635 0.052764,0 0.281405,-0.06156 0.6859254,-0.184672 1.248736,0 2.119334,0.298993 2.611793,0.89698 4.94218,4.520066 10.587873,6.780106 16.93708,6.780106 h 3.667063 c 2.339181,0 4.432133,-0.45728 6.278855,-1.37185 2.567823,-0.40452 5.707251,-2.33039 9.418283,-5.777601 v -0.527635 h -2.26883 c 0.175879,-0.334169 0.351757,-0.501253 0.527635,-0.501253 h 0.342963 c 1.354263,0 2.286418,-0.123115 2.796465,-0.369344 1.336675,-2.321591 2.383151,-3.482391 3.139428,-3.482391 l 1.21356,0.184672 c 0,-0.07035 0.237436,-0.36055 0.712307,-0.870597 V 92.425808 C 53.584455,91.388126 51.896023,90.869285 49.451315,90.869285 45.617168,88.776336 43.57698,87.729858 43.33075,87.729858 h -2.084158 c -1.072858,1.301499 -1.829134,2.347975 -2.26883,3.139427 v 0.158291 h 1.741195 v 0.342963 h -0.15829 c -1.266324,1.512553 -3.069077,2.26883 -5.408258,2.26883 -2.532648,1.055272 -4.458515,1.582905 -5.777603,1.582905 -3.570329,-0.809041 -6.129359,-1.969837 -7.677088,-3.482391 v -0.369344 h 1.925868 l 0.342963,-0.158291 c -1.846723,-1.829134 -3.069077,-3.922086 -3.667063,-6.278855 -0.40452,-2.91958 -0.694719,-4.37937 -0.870597,-4.37937 h -2.954756 c -0.351757,-0.175878 -0.527635,-0.342963 -0.527635,-0.501253 0,-0.211054 0.114321,-0.334169 0.342963,-0.369345 h 3.508772 c 0.316581,-1.881898 0.659544,-3.042694 1.028888,-3.48239 0,-1.582905 1.574111,-3.790178 4.722332,-6.621818 0,-0.228642 -0.641956,-0.342963 -1.925867,-0.342963 v -0.184672 c 2.708526,-1.389439 5.091677,-2.084158 7.149453,-2.084158 1.512553,0.474871 2.620587,0.879391 3.3241,1.21356 2.145715,0.527635 4.528866,2.620587 7.149453,6.278856 h 1.741195 c 0.545223,0 1.415821,-0.351757 2.611793,-1.05527 l 4.007279,-2.044584 c -0.77653,-0.236721 -1.518525,-0.598681 -2.201777,-1.113529 -2.00389,-1.677497 -1.360896,-4.770208 0.471025,-6.337667 -0.597111,-0.564955 -1.231804,-1.11977 -1.907182,-1.663699 0,-0.932155 -2.092952,-1.398232 -6.278856,-1.398232 -2.100496,-1.419 -4.433673,-2.457687 -6.995009,-3.123489 -0.397899,1.765666 -0.52241,3.584138 -0.310537,5.396169 0.160441,1.675484 -1.941806,2.107452 -3.074572,1.315789 -2.416371,-1.656 -2.109845,-4.932253 -1.864859,-7.534188 -0.680494,-0.04267 -1.373708,-0.06431 -2.080311,-0.06431 l -0.685925,0.184673 c 0,-0.123115 -0.06156,-0.184673 -0.184673,-0.184673 z m 75.628227,0 c -0.436255,2.72771 -0.602822,5.482696 -0.793105,8.260236 -0.68859,1.196887 -2.943055,1.685139 -3.833599,0.468824 -1.114902,-2.742778 -0.675561,-5.795958 -0.543024,-8.715319 -0.249086,0.0044 -0.473713,0.0067 -0.756277,0.01373 -2.077351,2.471661 -5.879128,3.245847 -8.94671,2.518358 -1.540854,-0.278957 -2.837187,-1.215038 -3.676405,-2.466695 h -0.46388 c -1.382148,2.124416 -2.42447,3.736097 -3.303763,5.101571 0.08161,1.001693 -0.253284,2.044202 -1.050323,2.763488 -0.385778,0.4728 -0.835652,0.858362 -1.327332,1.162445 0.03698,0.152215 0.151402,0.232489 0.352305,0.232489 h 1.582905 v 0.369344 l -0.870598,0.184673 -0.896979,-0.184673 c -0.527635,0.123115 -1.002506,0.474872 -1.424614,1.05527 -0.932155,0 -1.70602,0.597987 -2.321594,1.793959 0.422108,1.072858 0.773865,1.609286 1.05527,1.609286 0,0.123115 -0.290199,0.773865 -0.870598,1.95225 H 71.664745 L 68.630844,67.78525 c 0.193466,0 0.430902,-0.114321 0.712307,-0.342963 0,-0.123115 -0.05276,-0.307787 -0.15829,-0.554017 V 66.72998 H 71.13711 V 66.7102 c -0.592009,-0.100943 -1.171409,-0.280463 -1.716463,-0.534231 h -0.605131 c -0.144659,-0.01314 -0.412503,-0.312399 -0.802992,-0.895879 -0.238061,-0.200971 -0.461452,-0.420166 -0.66614,-0.658444 l -0.536429,0.06705 c -2.684227,1.754387 -5.317986,4.021748 -8.341579,5.375828 -0.611125,0.305238 -1.261619,0.584986 -1.93521,0.824979 4.45914,6.919422 7.068324,10.705364 7.823835,11.352945 h 0.89698 l 1.767577,0.184672 c 0,0.193466 -0.2902,0.369345 -0.870598,0.527635 0,-0.123115 -0.06156,-0.184672 -0.184672,-0.184672 h -1.239942 l -0.554017,0.369344 0.184672,0.342963 v 3.403245 l -0.184672,1.239942 c 0.844216,0.316581 1.266324,0.554017 1.266324,0.712307 v 1.239942 c 0,0.24623 -0.123115,0.369345 -0.369345,0.369345 h -3.93088 l -0.342962,0.184672 c 0,0.228642 0.114321,0.342963 0.342962,0.342963 h 0.184673 l 0.369344,-0.184672 v 0.184672 c 0.123115,0 0.298993,-0.06156 0.527635,-0.184672 l 1.05527,0.184672 h 2.690938 c 0.351756,0.193466 0.527635,0.369344 0.527635,0.527635 v 12.663239 c 0.597986,0.52765 0.896979,0.82664 0.896979,0.89698 0.123115,0 0.184672,-0.0615 0.184672,-0.18467 0.211054,0.0879 1.037682,0.21105 2.479884,0.36934 0,-0.12311 0.06156,-0.18467 0.184673,-0.18467 0,0.12311 0.06156,0.18467 0.184672,0.18467 h 8.020051 l 0.896979,-0.18467 c 0,0.12311 0.06156,0.18467 0.184672,0.18467 0.351757,0 0.527635,-0.12311 0.527635,-0.36934 l -0.712307,-0.71231 V 91.159479 c 0,-0.211054 -0.123115,-0.334169 -0.369345,-0.369344 H 76.12326 l -0.896979,-0.158291 c 0,0.105527 -0.05276,0.158291 -0.158291,0.158291 -0.211054,-0.105527 -0.44849,-0.158291 -0.712307,-0.158291 v -0.184672 h 3.746208 c 0.228642,0 0.342963,-0.123115 0.342963,-0.369345 v -1.239942 l -1.081652,-0.712307 v -4.98615 l 0.184672,-0.369344 0.369345,0.184672 h 0.896979 c 0.510047,0 0.984918,-0.123115 1.424614,-0.369344 0,-0.193466 -0.123115,-0.307787 -0.369344,-0.342963 h -2.321594 c 0,-0.193466 3.095458,-5.012532 9.286375,-14.457197 h 0.342962 v 0.817834 h 0.342963 v -0.817834 h 0.369345 l 0.870597,-0.84916 v 1.508704 c 0.844216,0.439696 1.266324,0.729895 1.266324,0.870598 v 0.554016 c 0,0.386933 -0.06156,0.685926 -0.184672,0.89698 l 0.184672,1.055269 v 13.217255 l -0.184672,0.896979 h -1.239942 c -1.020095,0 -2.629381,0.06156 -4.82786,0.184673 l -0.184672,0.342962 v 0.184673 l 0.184672,0.342962 c 2.198479,0.123115 3.807765,0.184672 4.82786,0.184672 h 1.055269 c 0.24623,0 0.369345,0.123115 0.369345,0.369345 v 10.526316 l -0.184672,0.89698 c 0.123115,0 0.184672,0.175878 0.184672,0.527635 v 0.369344 c 0,0.228645 -0.123115,0.342965 -0.369345,0.342965 h -1.767576 c -0.211052,0 -0.334169,0.12311 -0.369345,0.36934 v 4.27385 c 0,0.24623 0.123115,0.36934 0.369345,0.36934 h 26.249841 c 3.41203,0 6.74493,-1.67084 9.99868,-5.01253 h 0.52763 l 1.23994,0.18467 1.42462,-1.424614 c 0.66834,-2.145716 1.20476,-3.218573 1.60928,-3.218573 0.21106,0.123115 0.44849,0.184672 0.71231,0.184672 h 0.69362 c -0.002,0.0088 -0.008,0.01764 -0.008,0.02637 0,0.263817 0.0616,0.501253 0.18468,0.712307 l -0.18468,0.369344 c 0,0.351757 0.12312,0.527635 0.36935,0.527635 h 0.7123 l 1.79396,0.184672 v 0.342963 h -0.7123 c -1.10804,0 -2.65577,0.06156 -4.64319,0.184672 -0.21106,0 -0.33418,0.114321 -0.36935,0.342963 v 0.369344 c 0,0.24623 0.12313,0.369345 0.36935,0.369345 h 1.5829 l 0.89698,0.15829 v 4.30022 l 0.18468,0.34297 c -0.12312,0 -0.18468,0.0616 -0.18468,0.18467 v 0.36934 c 0.19347,0.35176 0.37814,0.52764 0.55402,0.52764 h 1.05527 l 0.36934,-0.18467 c 0,0.12311 0.0616,0.18467 0.18468,0.18467 h 29.28373 v -6.78009 l 0.89698,-0.184672 h 0.97613 v 1.319087 c 0,0.24623 0.12311,0.369345 0.36934,0.369345 h 1.95225 v 0.52763 h -1.95225 c -0.21106,0 -0.33417,0.12312 -0.36934,0.36935 v 4.30022 c 2.39195,0.10552 4.1859,0.15829 5.38187,0.15829 h 7.33413 l 0.34296,-0.15829 c 0,-0.1407 -0.0528,-0.32537 -0.15829,-0.55401 0.10552,-0.21106 0.15829,-0.44849 0.15829,-0.71231 v -2.13692 l -0.15829,-0.36935 c 0.10552,0 0.15829,-0.29899 0.15829,-0.89698 h 1.97863 c 0.24623,0 0.36935,-0.11432 0.36935,-0.34296 0,-0.211049 -0.12312,-0.334167 -0.36935,-0.369342 h -1.97863 v -8.231105 l -0.15829,-0.369345 c 0.10552,0 0.15829,-0.05276 0.15829,-0.15829 v -0.896979 h 3.21858 c 0.51004,0 1.23114,0.597986 2.1633,1.793958 1.05527,0 1.76758,0.589193 2.13692,1.767577 v 0.369345 h -0.71231 c 0,0.474871 1.7324,3.341688 5.19721,8.600451 v 0.15829 c -0.40452,0 -0.70352,0.0616 -0.89698,0.18467 0,0.0879 0.47487,0.80903 1.42461,2.1633 2.21607,0.10552 3.82535,0.15829 4.82786,0.15829 h 8.96979 l 0.34297,-0.15829 c 0,-0.19347 -0.41332,-0.91457 -1.23994,-2.1633 0,-0.1407 0.23743,-0.25503 0.7123,-0.34296 0,-0.15829 -1.85551,-2.901991 -5.56655,-8.231107 0,-0.246229 0.299,-0.369344 0.89698,-0.369344 v -0.184672 c -0.36934,-1.195973 -1.14321,-1.793959 -2.32159,-1.793959 l -1.60929,-1.952249 h -4.45851 c -0.21106,0 -0.33418,-0.123115 -0.36935,-0.369345 V 89.57658 c 0.70352,0 2.13692,-0.05276 4.30023,-0.158291 v -0.184672 l -0.18467,-0.369344 c 0.21105,0 0.51005,-0.114321 0.89698,-0.342963 -1.03768,-1.653256 -1.69723,-2.611793 -1.97864,-2.87561 v -0.184672 l 2.69094,-1.05527 c 2.93717,-1.776371 5.08289,-4.520073 6.43715,-8.231105 0,-0.24623 -0.35176,-0.369344 -1.05527,-0.369344 0.35175,-2.427121 0.52763,-3.860529 0.52763,-4.300225 0,-1.283912 -0.42211,-3.192191 -1.26632,-5.724839 -1.35426,-3.042694 -2.96355,-5.012531 -4.82786,-5.909511 0,-0.263817 0.0616,-0.50125 0.18467,-0.712307 -0.24622,-0.404517 -0.90577,-0.765071 -1.97863,-1.081651 -1.54772,-0.826629 -4.59042,-1.239943 -9.12808,-1.239943 h -12.50495 c -0.84422,0 -2.1633,0.06156 -3.95726,0.184673 0,-0.123115 -0.11432,-0.184673 -0.34296,-0.184673 -0.19347,0.123115 -0.49246,0.184673 -0.89698,0.184673 h -1.26633 c -0.19347,0 -0.30779,0.114321 -0.34296,0.342962 v 1.793959 l -1.08165,0.712307 v 3.982546 c -0.18675,0.08688 -0.39678,0.133007 -0.63316,0.133007 h -0.71231 c -0.35175,-0.193467 -0.52764,-0.369342 -0.52764,-0.527635 v -6.094184 c -0.19346,-0.351756 -0.36933,-0.527635 -0.52763,-0.527635 H 135.8779 c -1.17839,0 -2.96355,0.06156 -5.35549,0.184673 l -0.18468,0.342962 v 6.252474 c 0,0.24623 0.12312,0.369345 0.36935,0.369345 h 2.13692 c 0.24623,0 0.36934,0.11432 0.36934,0.342962 v 0.369345 l -1.26632,0.712307 v 2.849228 h 0.36934 c 1.30151,0 1.95225,0.184673 1.95225,0.554017 v 10.895661 c -1.88189,0.105527 -3.00751,0.158291 -3.37686,0.158291 -0.36934,0 -0.55402,0.123114 -0.55402,0.369344 v 5.883129 c 0,0.24623 -0.11432,0.369345 -0.34296,0.369345 h -2.13692 c -0.009,0 -0.0162,0.0033 -0.0253,0.0039 -1.13375,-2.444261 -3.13809,-4.301921 -6.01614,-5.570398 V 80.58041 c 3.67586,-2.251242 5.51379,-5.584136 5.51379,-9.998681 h 0.73868 l 0.8706,0.184672 c 0,-0.123115 0.0616,-0.184672 0.18467,-0.184672 0,0.123114 0.0616,0.184672 0.18468,0.184672 0.22864,0 0.34296,-0.123115 0.34296,-0.369345 v -0.712307 c 0,-0.193469 -0.11432,-0.316583 -0.34296,-0.369344 h -2.13692 c 0,-0.351757 -0.12312,-0.527635 -0.36935,-0.527635 h -1.79396 c -0.4221,-2.005013 -0.89698,-3.552742 -1.42461,-4.643187 1.12562,-0.140703 1.84672,-0.255024 2.1633,-0.342963 -2.70852,-4.643187 -7.35172,-6.964781 -13.92956,-6.964781 z m -51.092103,0.07915 c -0.07991,0.130397 -0.159979,0.259821 -0.240733,0.390779 0.391113,0.870074 1.76288,2.926761 4.144131,6.204657 0,0.15582 -0.339203,0.28617 -1.000857,0.39298 0.01356,0.292096 0.06585,0.576678 0.155544,0.846962 h 1.39933 l 1.239942,1.424614 h 1.952249 c 0.224452,0 0.341249,0.107587 0.3611,0.312186 3.155397,-0.862189 5.858537,-3.070115 8.672449,-4.66792 -0.234942,-0.469573 -0.449196,-0.949318 -0.650198,-1.434509 -0.436662,-0.695504 -0.841453,-1.303368 -1.220157,-1.838477 -2.001405,1.183076 -5.139459,0.546292 -6.319527,-1.631272 h -0.862352 c -0.209779,0.344313 -0.441697,0.746419 -0.705162,0.913469 -1.768976,2.061727 -5.174388,1.279274 -6.47562,-0.913469 z M 163.39407,65.04156 h 0.26382 v 6.832873 l -1.23994,0.712307 v 0.896979 c 0.94975,0 1.42461,0.474871 1.42461,1.424614 0.1407,0 0.73869,-0.06156 1.79396,-0.184672 0.12312,0 0.299,0.06156 0.52764,0.184672 l -0.18467,1.081652 h -0.89698 c -0.19348,0 -0.3078,0.114321 -0.34297,0.342963 V 88.52131 l -0.18467,0.342963 c -0.12311,0 -0.29899,-0.06156 -0.52763,-0.184672 -0.24624,0 -0.36935,0.184672 -0.36935,0.554016 0,0.175881 -1.48617,0.290202 -4.45851,0.342963 l -0.36935,0.184672 c 0,0.24623 0.12312,0.369345 0.36935,0.369345 h 3.56153 l 0.89698,0.184672 v 7.25498 h -1.68843 c -0.12311,-1.195973 -0.29899,-1.793959 -0.52763,-1.793959 h -16.98985 v -0.184672 c 0,-0.263817 0.0616,-0.501253 0.18467,-0.712307 -0.12311,-0.211054 -0.18467,-0.44849 -0.18467,-0.712307 -0.70351,-0.07035 -1.05527,-0.422108 -1.05527,-1.05527 v -5.909511 l -1.79396,-0.184672 H 140.5211 V 86.85926 c 0,-0.211054 0.12311,-0.334169 0.36935,-0.369344 h 0.34296 l 1.08165,0.184672 c 0.82663,-0.07035 1.23994,-0.307787 1.23994,-0.712307 h 15.19589 l 0.52763,-0.369345 -0.18467,-1.793958 v -3.033901 l 0.18467,-0.896979 c 0.12312,0 0.3078,0.06156 0.55402,0.184672 l 1.05527,-0.184672 0.36934,0.184672 c 1.30151,-0.123115 1.95225,-0.298993 1.95225,-0.527635 v -2.690938 c 0,-0.193466 -0.11432,-0.307787 -0.34296,-0.342963 h -15.53885 v -7.677088 c 0,-0.211054 -0.12311,-0.334169 -0.36934,-0.369344 h -1.60929 c -0.19347,0 -0.30779,-0.114321 -0.34296,-0.342963 v -1.609287 c 2.55023,-0.123112 4.44972,-0.184672 5.69846,-0.184672 h 12.32027 c 0.24623,0 0.36934,-0.123115 0.36934,-0.369344 z m -59.2534,1.239942 c 0,0.123115 0.0528,0.184673 0.15829,0.184673 h 3.58792 c 0.82663,0 1.95225,0.773864 3.37687,2.321593 h 1.42461 c 0.42211,0 0.84421,0.237436 1.26632,0.712307 h 0.89698 l 0.34297,-0.184672 c 0,0.123115 0.0616,0.184672 0.18467,0.184672 l 0.34296,-0.184672 c 0.49246,0.211054 0.73869,0.571605 0.73869,1.081652 v 0.184672 h -2.1633 v 1.424614 c 0,2.040189 -1.31029,3.587918 -3.93088,4.643188 h -7.12308 c -0.21105,0 -0.33417,-0.123115 -0.36934,-0.369345 v -5.883129 l 0.18467,-1.239942 c -0.299,-0.24623 -0.47488,-0.369345 -0.52763,-0.369345 h -1.60929 c -0.21106,0 -0.33417,-0.114321 -0.36934,-0.342962 v -1.978631 h 3.21857 z m 72.57619,0.05276 c 0.29899,0 0.78265,0.05276 1.45099,0.15829 0.14071,0 0.72989,-0.05276 1.76758,-0.15829 0.0703,0 0.31658,0.05276 0.73869,0.15829 0,-0.105527 0.0528,-0.15829 0.15829,-0.15829 l 0.36934,0.15829 0.36935,-0.15829 c 2.11054,0.105527 3.29772,0.281405 3.56153,0.527635 2.14572,1.494965 3.21858,2.866816 3.21858,4.115552 v 1.424614 c 0,0.615575 -0.11432,1.336676 -0.34297,2.163304 l 0.34297,0.15829 h 1.60928 c 0,0.844216 -0.58918,1.266324 -1.76757,1.266324 -0.82663,1.195972 -2.44471,1.793959 -4.85425,1.793959 h -5.54016 v -1.793959 h 0.89698 l 0.7123,-0.896979 h 1.60929 v -0.369345 h -4.30022 c 0,-0.123115 -0.0528,-0.298993 -0.15829,-0.527635 h 0.15829 c 0,-0.281402 -0.47488,-0.457281 -1.42462,-0.527635 v -1.081651 c 0.94974,0 1.42462,-0.536429 1.42462,-1.609287 v -0.184672 l -0.15829,-0.342963 c 0.10552,0 0.15829,-0.06156 0.15829,-0.184672 V 69.18349 c 0,-0.597986 -0.0528,-1.494965 -0.15829,-2.690938 0.10552,0 0.15829,-0.05276 0.15829,-0.15829 z m -121.646233,0.395726 0.02254,0.104978 c 0.08203,-0.0062 0.163829,-0.01024 0.24733,-0.02364 0.201143,-0.01984 0.399103,-0.04957 0.596337,-0.08135 z m 52.816253,18.678276 h 2.84923 c 0.87941,0 1.35428,0.175878 1.42461,0.527635 -2.98993,0.123115 -5.37308,0.184672 -7.14945,0.184672 h -1.95225 v -0.554016 c 2.19848,-0.105527 3.80777,-0.158291 4.82786,-0.158291 z m -11.265004,0.712307 h 4.643184 l 1.26633,0.342963 v 0.527635 h -5.909514 c 0,-0.123115 -0.05276,-0.298993 -0.15829,-0.527635 0.105527,0 0.15829,-0.114321 0.15829,-0.342963 z m 19.285054,0 h 6.0678 c 0.24624,0 0.36935,0.114321 0.36935,0.342963 v 0.184672 c 0,0.228642 -0.12311,0.342963 -0.36935,0.342963 h -4.64318 l -1.23995,0.184672 -0.18467,-0.342963 z m 62.26092,0.60678 h 1.60929 c 0.12311,0 0.4221,0.536429 0.89698,1.609287 l -0.73869,1.239942 -0.34296,-0.158291 h -0.18468 c -0.59798,0 -1.49496,0.05276 -2.69093,0.158291 0,-0.123115 -0.0528,-0.298993 -0.15829,-0.527635 0.22864,0 0.34296,-0.123115 0.34296,-0.369344 l 0.36934,0.184672 h 0.34297 c 0.12312,-1.424614 0.30779,-2.136922 0.55401,-2.136922 z m -73.68421,0.263818 v 0.184672 l 1.23994,-0.184672 c 4.95977,0.123115 7.87935,0.184672 8.75874,0.184672 0.12311,0 0.65954,0.835422 1.60928,2.506266 -0.19347,2.26883 -0.49246,3.403245 -0.89697,3.403245 0,0.228642 0.7123,0.40452 2.13692,0.527635 -1.1608,1.424614 -2.22486,2.136921 -3.19219,2.136921 h -10.89567 l -0.36934,-0.184672 c 0,-0.615574 0.0616,-1.152003 0.18467,-1.609286 -0.12311,-1.108034 -0.18467,-2.172097 -0.18467,-3.192191 v -0.89698 l 0.18467,-0.896979 c -0.12311,0 -0.18467,-0.175879 -0.18467,-0.527635 l 0.18467,-1.266324 h 1.08165 z m 23.64738,0.211054 h 2.04844 l 0.34296,0.184672 -0.18467,0.342963 v 5.579189 c -0.6334,0.07176 -1.09272,0.119268 -1.21356,0.119268 h -0.18468 v -1.424614 c 0,-1.782289 -0.27025,-3.382 -0.80849,-4.801478 z M 171.889,89.57658 h 3.93088 v 0.184672 c 0,0.24623 -0.11432,0.369345 -0.34297,0.369345 h -3.21857 c -0.21106,0 -0.33417,-0.123115 -0.36934,-0.369345 z M 31.643637,91.027576 c -1.3015,1.283914 -2.172098,1.925867 -2.611793,1.925867 v 0.342963 h 1.398232 c 0.633162,0 1.679638,-0.641953 3.139428,-1.925867 0,-0.193466 -0.114321,-0.307787 -0.342963,-0.342963 z m 99.431703,2.956405 c 0.35072,0.146083 0.52873,0.381909 0.52873,0.710658 0,0.281405 -0.0616,0.527635 -0.18467,0.738689 -0.29545,0.07927 -0.51483,0.15473 -0.68922,0.228093 0.16478,-0.30181 0.27977,-0.861151 0.34516,-1.67744 z m 4.80257,3.77094 h 1.26633 v 0.342963 h -1.60929 c 0,-0.193466 0.11432,-0.307787 0.34296,-0.342963 z m 18.9421,0.527635 h 2.84923 c 0,0.123115 0.0616,0.298993 0.18467,0.527635 -0.12311,0.228642 -0.18467,0.413314 -0.18467,0.554017 h -2.47989 c -0.21106,0 -0.33417,-0.123115 -0.36934,-0.369345 z"
       id="path4591"
       inkscape:connector-curvature="0"
       sodipodi:nodetypes="csscccscccsscccccsssssccccccsccccsccccssccccssccccccscccccccccccccscscccccccccsccccccccccccccccccccccccsccccccccccccccccccccccccccscccccsssccsccccccscccccsccsccsccccccsscccccscccccccccccssccccsccccsssccsssscssscccccscsccscccsccssccccscsccsccccssccsccscccscccssccccscsccccccccscccccccccscccccccccccsccccssccssccccscscssccsssscccsscssssscccccccsssccscccsccccccccsccccccccccccccccccsccccsccsccccscsccscccsccccccccccccssccscsccsssccsscscccccsccscscccssccccccccccccssccccscccccccccccsccsscccccccsscsccsccccccccssssccccsscccscccccscccscccscccscccccccccccscscccssscccccsccccsccccccccccccscc" />
  </g>
  <g
     inkscape:groupmode="layer"
     id="layer2"
     inkscape:label="Full Spectrum"
     transform="translate(6.6112126,-17.372012)"
     style="display:inline">
    <g
       aria-label="Full Spectrum"
       transform="matrix(1.0577527,-0.11117428,0.11117428,1.0577527,-6.5733614,-4.2184222)"
       style="font-style:normal;font-variant:normal;font-weight:normal;font-stretch:normal;font-size:28.22222137px;line-height:125%;font-family:Retrofest;-inkscape-font-specification:Retrofest;letter-spacing:0px;word-spacing:0px;fill:#ff00e5;fill-opacity:1;stroke:none;stroke-width:2;stroke-linecap:butt;stroke-linejoin:miter;stroke-miterlimit:4;stroke-dasharray:none;stroke-opacity:1"
       id="text857">
      <path
         style="font-size:33.86666489px;fill:#ff00e5;fill-opacity:1;stroke:none;stroke-width:7.55905533;stroke-miterlimit:4;stroke-dasharray:none;stroke-opacity:1"
         d="m 513.125,39.392578 c -0.33876,-0.0086 -0.66809,0.0017 -0.98633,0.03516 -0.63652,0.0669 -1.13337,0.247262 -1.64258,0.300782 -0.86434,0.348244 -1.70089,0.951142 -2.51171,1.808593 -1.99014,1.882339 -4.66521,7.053926 -8.00977,15.642579 l -2.46484,5.921874 -4.32813,0.455079 c -5.34655,0.561945 -8.59032,1.546103 -9.48828,2.798828 -0.44231,0.690016 -0.64366,1.227478 -0.60352,1.609375 0.0803,0.763793 0.68315,1.600369 1.8086,2.511718 0.71676,0.696896 1.78835,1.09892 3.24218,1.460938 1.32649,0.375399 2.75403,0.483112 4.1543,0.335938 1.273,-0.133798 1.93613,0.05399 1.96289,0.308593 0.0535,0.509197 -0.28183,2.217393 -1.00586,5.125 -2.3577,8.776065 -3.42124,16.475805 -3.23242,22.968745 -0.82486,0.7867 -1.71927,1.69844 -2.69531,2.75195 -4.75095,5.00403 -8.48963,8.61482 -11.2168,10.83204 -2.72716,2.21721 -5.18004,3.37577 -7.2168,3.58984 l -0.12695,0.0137 c -3.05517,0.32111 -4.74392,-1.0457 -5.09179,-4.35547 -0.24084,-2.29138 0.11422,-5.03139 1.05273,-8.34765 0.95189,-3.18897 2.05895,-6.137909 3.3457,-8.589844 0.85782,-1.634621 2.07116,-3.563703 3.66602,-5.533203 1.59485,-1.969495 2.90027,-3.007612 3.66406,-3.08789 0.3819,-0.04014 0.66328,0.188058 0.7168,0.697265 0.10703,1.01839 -0.35523,2.740254 -1.13281,5.138672 -0.40214,1.071909 -0.7045,1.876263 -0.67774,2.13086 0.0268,0.254585 0.19501,0.623413 0.60352,0.83789 0.43541,0.469054 1.09948,0.65645 1.86328,0.576172 1.27296,-0.133794 2.49097,-0.777392 3.88476,-2.210937 1.39379,-1.433542 2.3802,-3.081187 3.08399,-4.957032 0.47592,-1.594482 0.69766,-3.161867 0.53711,-4.689453 -0.30774,-2.927875 -1.83603,-5.213522 -4.46875,-6.996094 -2.7467,-1.641886 -5.78169,-2.353437 -9.21875,-1.992187 -1.78217,0.187314 -3.52366,0.758281 -5.125,1.441406 -3.65841,1.928975 -6.84185,4.70867 -9.42188,8.326172 -2.69392,3.758179 -4.31478,7.918267 -4.99219,12.494141 -0.45606,3.008142 -0.54435,5.847862 -0.25,8.648432 0.0536,0.51009 0.12595,1.00599 0.20118,1.49805 -1.15616,1.78015 -2.57503,3.72906 -4.32227,5.88672 -2.05054,2.53221 -4.04027,4.4146 -6.22461,5.67382 -2.17096,1.38653 -4.02678,2.0956 -5.68164,2.26954 l -0.38281,0.0391 c -1.273,0.1338 -2.38457,-0.64869 -3.18164,-2.10938 -0.92435,-1.4473 -1.36601,-3.20345 -1.58008,-5.24023 -0.1338,-1.27299 -0.12595,-2.43143 0.0215,-3.47656 l 1.47266,-0.66993 c 3.93975,-1.70113 7.49257,-4.6483 10.42773,-8.56054 2.93513,-3.912231 4.34199,-7.665317 4.47657,-11.283201 l -0.14649,-1.400391 c -0.45491,-4.328156 -2.68571,-7.181013 -6.71875,-8.816406 -2.14383,-0.804313 -4.23505,-1.101085 -6.14453,-0.90039 -4.20086,0.441528 -7.67757,2.866369 -10.58594,7.033203 -2.89498,4.294129 -4.61722,8.722607 -5.28125,13.425775 -0.50958,2.49896 -0.51036,4.94495 -0.26953,7.23633 0.40139,3.81896 1.39801,7.18932 3.13281,10.22461 1.60746,3.04867 3.5298,5.42017 5.75391,6.98828 3.06814,2.25163 6.25825,3.205 9.69531,2.84375 2.41869,-0.25421 4.89805,-1.15829 7.29688,-2.82617 2.41217,-1.54058 4.74249,-3.84589 6.99414,-6.91406 0.90255,-1.22987 1.7912,-2.58989 2.66406,-4.02344 0.83028,2.08518 1.95597,3.91257 3.41211,5.44336 2.77994,3.18285 6.39185,4.47776 10.97461,3.99609 2.03676,-0.21407 4.17367,-0.69653 6.38477,-1.70117 2.46568,-1.03138 4.73705,-2.68655 7.0957,-4.73633 2.35865,-2.04978 5.60253,-5.47856 10.01172,-10.06054 0.11496,-0.12057 0.18874,-0.20797 0.30078,-0.32618 0.45319,2.93394 1.08574,5.29305 1.9707,7.16602 1.03139,2.4657 2.67238,4.60963 4.89649,6.17773 2.37814,1.80933 5.15736,2.54739 8.33984,2.21289 2.03676,-0.21407 3.90654,-0.79654 5.70898,-2.01562 1.94314,-1.10517 4.7436,-3.84565 8.26172,-8.33399 3.23035,-4.12561 6.30586,-8.59096 9.2461,-13.271476 1.53535,0.76406 3.25232,1.017748 5.16797,0.816406 0.50917,-0.05352 1.14607,-0.120536 1.89648,-0.328125 1.50083,-0.415141 2.37855,-0.635056 2.50586,-0.648437 0.0134,0.127311 -0.26272,1.184359 -0.95313,3.187492 -1.83647,4.569 -2.34573,9.51352 -1.81054,14.60547 l 0.0801,0.76367 c 0.18731,1.78219 0.30733,2.92803 0.48828,3.42383 0.18094,0.4958 0.64323,1.22102 1.24609,2.0586 1.93587,2.49933 4.36085,3.53009 7.41602,3.20898 2.29138,-0.24083 4.80513,-2.04822 7.25781,-5.65234 1.69919,-2.49686 4.36751,-7.07692 7.88086,-13.47071 0.59012,1.26945 1.30624,2.40683 2.16797,3.4043 2.34452,2.7138 5.55955,3.91999 9.64648,3.61914 0.52259,0.0738 1.03217,0.0206 1.41406,-0.0195 1.14569,-0.12042 2.26435,-0.49498 3.45704,-1.39258 2.17096,-1.38652 4.67806,-4.48183 7.51953,-9.28515 1.08568,-1.91598 2.21076,-3.450344 3.22265,-4.84375 l 0.86328,2.09765 c 0.85056,1.96989 2.05659,3.644 3.77149,5.26563 1.7149,1.62163 3.49103,2.59344 5.35351,3.16992 1.33987,0.5027 2.89361,0.59747 4.67579,0.41016 1.7822,-0.18732 3.28221,-0.60275 4.48828,-1.37305 1.21948,-0.643 2.38586,-1.79468 3.65234,-3.21485 0.3397,-0.31534 1.13885,-1.49969 2.16016,-3.0957 0.48819,3.01746 1.24078,5.12653 2.40234,6.34766 1.48708,1.90298 3.48884,2.59347 6.16211,2.3125 2.80059,-0.29436 4.84479,-1.66662 5.87695,-4.0918 0.61662,-1.48057 1.97785,-4.45571 4.09571,-8.79687 2.11781,-4.341152 4.13403,-8.413553 6.05078,-12.21875 1.91675,-3.805202 3.20457,-6.256802 3.86133,-7.355469 -0.60324,1.607863 -1.2203,3.087553 -1.59571,4.414062 -1.57536,5.828599 -2.0595,11.028228 -1.56445,15.738282 0.34787,3.309765 1.12533,5.801175 2.57226,7.322265 1.47366,1.77568 3.47676,2.46622 6.27735,2.17187 3.05517,-0.32111 5.36722,-1.59328 6.78125,-4.05859 0.98513,-1.648 2.64776,-5.425796 5.01367,-11.080077 2.36595,-5.654284 4.78486,-10.799655 7.25781,-15.435547 2.34568,-4.62251 4.59665,-7.690964 6.62696,-9.191406 l -2.11133,5.626953 c -1.27337,2.579235 -2.09012,4.597215 -2.69336,6.205079 -0.60324,1.607863 -1.16786,3.596403 -1.66406,6.222656 -0.62348,2.639633 -0.76291,4.971034 -0.54883,7.007812 0.29435,2.800575 1.19681,5.280266 2.69726,7.31054 2.11667,2.99516 4.69646,4.26809 7.87891,3.9336 1.52759,-0.16056 2.88863,-0.68894 4.33594,-1.61328 2.5261,-1.68126 6.714,-7.141404 12.70508,-16.265625 4.53691,-7.040807 6.82188,-11.012857 6.71484,-12.03125 -0.0401,-0.381897 -0.44805,-0.597461 -1.11133,-0.785157 -0.25447,0.02675 -0.52272,-0.07364 -0.77734,-0.04687 -0.89107,0.09365 -1.72958,0.697188 -2.6543,1.695313 -0.91138,1.125433 -2.13777,2.926864 -3.65234,5.660156 -4.7984,8.226635 -8.60366,13.646634 -11.27735,16.373047 -1.63499,1.587599 -2.46026,2.316992 -2.71484,2.34375 -0.25447,0.02675 -0.28076,-0.226773 -0.34766,-0.863281 -0.29435,-2.800575 0.34915,-6.471388 2.04493,-11.154297 1.58188,-4.542236 3.27713,-9.225633 4.98632,-13.78125 1.58185,-4.542232 2.35295,-8.226769 2.0586,-11.027344 -0.32111,-3.055171 -1.9747,-5.326968 -4.94922,-6.6875 -1.48055,-0.616618 -2.67957,-1.006059 -3.44336,-0.925781 -0.76379,0.08028 -1.74214,0.569311 -2.70703,1.185547 -2.41217,1.540581 -4.7587,3.717679 -7.03711,6.53125 -2.26499,2.940866 -4.47678,6.39035 -6.63477,10.349609 -2.15795,3.959256 -3.9874,7.369585 -5.36133,10.216797 -1.36054,2.974508 -2.92127,6.484542 -4.55664,10.517578 l -0.22851,0.283203 c -0.0401,-0.381896 0.38386,-2.485671 1.52344,-6.33789 1.02564,-3.711543 2.07734,-7.169091 3.16992,-10.244141 2.54711,-7.603901 3.86114,-12.247111 3.67383,-14.029297 -0.0669,-0.636493 -0.40136,-1.374305 -0.73633,-2.111328 -0.30799,-0.48245 -0.73028,-0.82362 -1.29297,-1.279297 -2.70656,-1.25999 -4.83833,-1.936532 -6.11133,-1.802734 -0.76379,0.08028 -1.38669,0.273926 -1.86914,0.582031 -2.41217,1.540581 -4.75679,3.717684 -7.03516,6.53125 -2.27837,2.813566 -4.6171,6.276722 -6.76171,10.363281 -2.14458,4.086556 -3.84743,7.482919 -5.10743,10.189453 -1.25999,2.706531 -2.82036,6.218806 -4.68359,10.533204 l -0.22852,0.28125 c -0.0401,-0.381897 0.38191,-2.485671 1.52149,-6.337891 1.02568,-3.711547 2.07933,-7.169095 3.17187,-10.244141 2.54716,-7.603905 3.86115,-12.247111 3.67383,-14.029297 -0.0669,-0.636492 -0.40327,-1.372356 -0.73828,-2.109375 -0.58945,-0.710277 -1.56085,-1.380408 -2.77344,-1.896484 -1.19921,-0.38878 -2.38361,-0.651667 -3.52929,-0.53125 -0.50921,0.05352 -1.00483,0.235252 -1.38672,0.275391 -1.9699,0.850568 -4.28889,3.281903 -6.71485,7.140625 -2.53985,3.999394 -4.42986,8.058852 -5.52929,12.292968 -1.30031,4.810837 -1.78978,9.716304 -1.55664,14.789063 -1.94944,2.938292 -3.58326,4.957484 -4.85743,5.962894 -1.40717,1.30624 -2.49988,1.9373 -3.26367,2.01758 -1.273,0.13379 -1.94256,-1.34132 -2.26367,-4.39649 -0.37463,-3.564367 1.05415,-10.794091 4.28516,-21.6875 1.80322,-6.109957 2.71504,-9.679566 2.63476,-10.443359 -0.16055,-1.527586 -1.1853,-2.70764 -3.08789,-3.666016 -1.90262,-0.958371 -3.75227,-1.407435 -5.78906,-1.193359 -1.40028,0.147175 -2.51952,0.522432 -3.48438,1.138672 -2.15758,1.513819 -3.95437,4.01854 -5.38867,7.515625 -1.01879,2.552472 -1.95629,5.870476 -2.67383,10.064453 -0.71754,4.193977 -0.91944,7.174502 -0.71875,9.083984 0.0803,0.763793 -0.19393,1.822171 -0.81054,3.302735 -0.61662,1.480567 -1.37483,2.846828 -2.38672,4.240234 -5.20012,6.853101 -8.56939,10.297061 -10.35156,10.484381 -1.01838,0.10703 -1.52118,-0.9993 -1.77539,-3.41797 -0.0535,-0.5092 -0.10741,-1.01809 -0.0469,-1.66797 -0.24721,-3.57776 1.32228,-10.693219 4.58008,-21.332035 1.50157,-5.306021 2.32507,-8.480239 2.47265,-9.52539 l -0.0664,-0.636719 c -0.12042,-1.145689 -0.87654,-2.225366 -2.00195,-3.136719 -1.25273,-0.897972 -2.72092,-1.387109 -4.55665,-1.708984 -0.63648,0.0669 -1.28571,0.007 -1.79492,0.06055 -6.11034,0.642223 -10.01063,7.615612 -11.98242,20.693359 -0.71754,4.193981 -0.83977,7.939885 -0.47851,11.376953 0.0561,0.533871 0.12615,1.050065 0.20312,1.558595 -0.86657,1.63865 -1.57524,2.95325 -2.64062,5.0039 -2.04403,3.81858 -3.68542,6.56542 -5.03907,8.38086 l -2.03711,2.65821 1.68164,-4.8086 c 1.65564,-5.06481 2.37326,-9.26054 2.02539,-12.570309 -0.17393,-1.654885 -0.70179,-3.013351 -1.44531,-3.964843 -1.79518,-2.385423 -4.23425,-3.546012 -7.16211,-3.238282 -0.8911,0.09366 -1.76879,0.314228 -2.64648,0.535157 -1.74207,0.569214 -3.38325,0.872061 -4.65625,1.005859 -1.14569,0.120417 -1.66856,0.0456 -1.69531,-0.208984 -0.0268,-0.254585 0.90399,-2.41246 2.89453,-6.740235 2.49322,-5.667661 4.14354,-9.571716 4.97461,-11.460937 0.70379,-1.875841 1.07774,-3.202314 0.9707,-4.220703 -0.0401,-0.381897 -0.21982,-0.879161 -0.40039,-1.375 -0.34813,-0.864347 -1.09334,-1.815206 -2.21875,-2.726563 -1.25273,-0.897972 -2.46492,-1.414592 -3.52344,-1.689453 -1.04517,-0.147545 -1.96277,-0.308793 -2.72656,-0.228516 -2.80059,0.294354 -5.07234,1.950544 -6.82813,4.837891 -1.08568,1.915983 -2.19118,4.862034 -3.07617,8.6875 -1.01226,3.838839 -1.55481,7.24229 -1.48828,10.324219 -0.0739,0.522589 -0.0203,1.031819 0.0332,1.541015 0.28485,2.710155 1.22219,4.843807 2.90235,6.484375 -0.53659,0.741057 -1.1073,1.575394 -1.71875,2.529297 -3.09609,4.830092 -6.14541,8.884652 -9.38867,12.314452 -3.24323,3.4298 -5.75526,5.23817 -7.41016,5.41211 -0.76379,0.0803 -1.40026,0.14579 -1.68164,-0.082 -0.26785,-0.10057 -0.69024,-0.44105 -1.01172,-1.05078 -0.58949,-0.71028 -1.00526,-2.21253 -1.24609,-4.50391 -0.48167,-4.58275 -0.11118,-9.63961 1.0957,-15.300779 1.54212,-7.369566 3.74729,-14.552601 6.84375,-21.828125 l 2.05078,-4.976563 7.75195,-0.943359 c 4.06017,-0.555459 6.59237,-0.950853 7.58399,-1.3125 0.99162,-0.361621 1.44688,-0.92497 1.33984,-1.94336 -0.12041,-1.145689 -1.11733,-2.0699 -2.75195,-2.927734 -1.62124,-0.730537 -3.71311,-1.025296 -6.03125,-1.039062 -0.25447,0.02675 -0.5224,-0.07334 -0.9043,-0.0332 -1.28638,0.0065 -2.06371,-0.04173 -2.45898,-0.128906 -0.50917,0.05352 -0.66328,-0.188058 -0.7168,-0.697265 -0.0268,-0.254585 0.33672,-1.707297 1.35547,-4.259766 1.8835,-5.346168 2.78048,-9.045253 2.56641,-11.082031 -0.1338,-1.27299 -0.76199,-2.364623 -1.63282,-3.302735 -0.84407,-0.683515 -2.06993,-1.327084 -3.53711,-1.816406 -1.18582,-0.261478 -2.29232,-0.458462 -3.30859,-0.484375 z m -160.84961,0.941406 c -1.15907,-0.0069 -2.31134,0.05146 -3.45703,0.171875 -4.83736,0.508427 -9.55411,2.162119 -14.30469,4.720703 -4.75058,2.558589 -8.79707,5.686018 -12.29492,9.142579 -3.48447,3.583856 -6.57464,7.255255 -9.02734,10.859375 -2.43933,3.73142 -4.14217,7.127785 -5.10743,10.189453 -1.17971,3.470323 -1.49386,6.59235 -1.21289,9.265625 0.21408,2.036782 0.66832,3.918844 1.63282,5.748047 0.83719,1.842583 2.06947,3.773474 3.83789,5.904297 1.76842,2.130822 3.79264,4.234552 6.21093,6.425782 2.4183,2.19122 5.37113,4.58435 8.86133,7.17773 3.22223,2.49284 5.48775,4.44285 6.89453,5.58203 1.29287,1.27988 2.5987,2.68653 3.79102,4.23438 4.47457,5.83625 7.04588,10.71424 7.44727,14.5332 0.17393,1.65489 -0.0601,3.09537 -0.43555,4.42188 -0.57648,1.86246 -1.95634,3.42373 -4,4.79687 -2.15758,1.51382 -4.39543,2.26366 -6.94141,2.53125 -1.90948,0.2007 -3.71831,0.13255 -5.32617,-0.4707 -5.05143,-1.52836 -7.77184,-5.36036 -8.41406,-11.4707 -0.29435,-2.80058 -0.13263,-6.16385 0.48437,-10.08985 0.34214,-2.86747 0.4965,-5.07202 0.33594,-6.59961 -0.21407,-2.03678 -1.09776,-3.10225 -2.49805,-2.95508 l -0.76367,0.0801 c -1.23285,0.5157 -2.17172,1.38737 -2.70117,2.47266 -0.51608,1.21259 -0.9252,3.44209 -1.11328,6.55078 -0.41592,3.39005 -0.29651,6.98251 0.0781,10.54688 0.2676,2.54597 0.58198,4.31402 1.09766,5.54687 2.67212,7.05534 8.64224,11.19052 17.89453,12.27734 1.5811,0.34865 3.50285,0.27541 6.04883,0.008 4.32816,-0.45491 7.72507,-1.19904 10.30469,-2.3711 9.46752,-4.2127 13.84487,-10.33564 13.00195,-18.35547 -0.28097,-2.67327 -1.23886,-5.66025 -2.73242,-8.8496 -2.26385,-4.39545 -4.70186,-8.0008 -7.59571,-11.04297 -2.89384,-3.04218 -7.68986,-7.044 -14.54296,-12.244144 -4.75631,-3.618653 -7.82599,-5.868912 -9.10547,-7.021485 -1.26611,-1.025272 -2.30417,-2.331989 -3.22852,-3.779297 -1.66788,-2.398802 -2.55858,-4.7509 -2.82617,-7.296875 -0.36125,-3.437067 0.42368,-6.994317 2.36719,-10.544921 1.9435,-3.550602 5.02015,-7.349468 9.07422,-11.636719 1.97676,-2.009636 4.48907,-3.818356 7.42382,-5.285157 2.94814,-1.3395 5.93576,-2.297444 8.73633,-2.591796 2.54598,-0.267593 4.77714,0.141874 6.53906,0.986328 1.76193,0.844453 2.82695,2.406581 3.04102,4.443359 0.24083,2.291379 -0.49596,5.071967 -1.95703,8.314453 -0.85784,1.634623 -1.98477,3.168314 -3.50586,4.615235 -1.63501,1.587604 -3.63767,3.341832 -6.15039,5.15039 -2.51272,1.808558 -4.28977,3.283412 -5.3418,4.294922 -2.4592,2.317751 -3.48966,4.742394 -3.19531,7.542969 0.36125,3.437068 2.22234,6.459062 5.83984,9.039062 3.63089,2.707301 7.21459,3.745432 10.90625,3.357422 1.14569,-0.120417 2.27892,-0.368448 3.3711,-0.998047 4.0403,-1.969113 7.78702,-6.738041 11.11132,-14.294921 3.32431,-7.556881 4.72554,-15.040844 3.9629,-22.296876 -0.46829,-4.455456 -1.90179,-8.294825 -4.0586,-11.671874 -1.5272,-2.284882 -3.66544,-4.246783 -6.41211,-5.888672 -2.73329,-1.514593 -5.53872,-2.50683 -8.54687,-2.962891 -1.17245,-0.134181 -2.33898,-0.206009 -3.49805,-0.212891 z M 165.91211,60.738281 c -0.85483,0.0177 -1.72805,0.07431 -2.61914,0.167969 -1.90948,0.200695 -3.93299,0.541398 -6.07031,1.023438 -8.4086,2.042125 -17.02504,5.779402 -25.99024,11.097656 -8.95182,5.44555 -16.0559,11.339921 -21.55078,17.83789 -6.19177,7.21474 -8.99915,13.559356 -8.42383,19.033206 0.16056,1.52758 0.57575,3.02858 1.21875,4.24804 1.13193,2.19773 3.00167,4.06089 5.76172,5.83008 2.63275,1.78257 5.45244,2.90107 8.58789,3.34375 1.17245,0.13417 2.07605,0.16817 2.83985,0.0879 1.78218,-0.18731 2.60645,-0.91842 2.47265,-2.1914 -0.0401,-0.3819 -0.21982,-0.87625 -0.55469,-1.61328 -0.9511,-1.70191 -3.16283,-3.14285 -6.50586,-4.33594 -1.98975,-0.5631 -3.34158,-1.19276 -3.90429,-1.64844 -0.56271,-0.45567 -0.88515,-1.06559 -0.99219,-2.08398 -0.26759,-2.54598 0.8259,-5.62108 3.5332,-9.25196 6.70136,-9.713689 20.04795,-17.424471 39.75977,-23.357419 5.36681,-1.593713 10.1507,-2.611206 14.35156,-3.052734 3.30977,-0.347871 5.13261,-0.152465 5.21289,0.611328 0.0535,0.509196 -0.52399,2.372164 -1.73047,5.587891 -1.20647,3.215727 -1.65508,5.065022 -1.60156,5.574218 0.0937,0.891093 0.42751,1.626359 0.99024,2.082032 1.47368,1.775685 3.34924,2.481068 5.64062,2.240234 3.18247,-0.334491 6.07718,-2.18368 8.55664,-5.533203 2.25162,-3.068168 3.21701,-6.129686 2.86914,-9.439453 -0.42815,-4.073564 -2.61041,-7.706057 -6.57617,-11.150391 -4.19689,-3.500483 -9.29156,-5.231331 -15.27539,-5.107422 z m 110.31836,3.552735 c -0.33876,-0.0086 -0.66613,0.0017 -0.98438,0.03516 -0.63649,0.0669 -1.13338,0.247263 -1.64257,0.300781 -0.86434,0.348243 -1.70091,0.951144 -2.51172,1.808594 -1.99015,1.88234 -4.66521,7.053925 -8.00977,15.642578 L 260.61523,88 c -6.13979,17.50568 -8.33865,33.31124 -6.85351,47.44141 0.18731,1.78218 0.36115,3.43627 0.67578,5.20507 -1.59487,1.9695 -2.98825,3.40331 -3.95312,4.01954 -1.09218,0.62961 -2.08548,0.99228 -2.97657,1.08593 -2.29138,0.24084 -3.95259,-0.87126 -5.25195,-3.4375 -0.64299,-1.21947 -1.00955,-3.49882 -1.35742,-6.80859 -0.37463,-3.56437 -0.42883,-6.51804 -0.17383,-8.99024 0.40943,-4.67641 1.93051,-11.0142 4.4375,-19 2.50699,-7.985794 5.31008,-15.617395 8.41992,-22.76562 3.10984,-7.148228 4.67863,-11.81639 4.45117,-13.980469 l -0.082,-0.765625 c -0.54245,-1.487446 -1.83402,-2.765892 -3.75,-3.851562 -1.91598,-1.085674 -3.8936,-1.521299 -5.67578,-1.333985 -1.01839,0.107037 -1.7555,0.442166 -2.36523,0.763672 -1.32001,0.910969 -2.90147,3.00678 -4.75782,6.16211 -1.97026,3.296004 -3.64395,6.946795 -5.13867,11.09375 -1.82309,4.696294 -3.65343,10.551339 -5.34961,17.679689 -1.82348,7.14173 -2.89028,12.91837 -3.33984,17.21289 -0.32876,2.99477 -0.24797,6.20356 0.11328,9.64062 0.17562,1.67092 0.405,3.27966 0.68164,4.84766 -3.18747,5.37329 -5.73548,8.85052 -7.55859,10.28906 -1.40717,1.30625 -2.49793,1.93535 -3.26172,2.01563 -1.27299,0.13379 -1.94256,-1.33936 -2.26367,-4.39453 -0.37463,-3.56437 1.05217,-10.79409 4.2832,-21.6875 1.80321,-6.10996 2.71504,-9.67957 2.63476,-10.44336 -0.16055,-1.52759 -1.18528,-2.70764 -3.08789,-3.66602 -1.90259,-0.95837 -3.75228,-1.40743 -5.78906,-1.19336 -1.40028,0.14718 -2.51755,0.52243 -3.48242,1.13867 -2.15758,1.51382 -3.95436,4.01854 -5.38867,7.51563 -1.01878,2.55247 -1.95629,5.86852 -2.67383,10.0625 -0.71754,4.19398 -0.91944,7.17645 -0.71875,9.08594 0.0803,0.76379 -0.19588,1.82217 -0.8125,3.30273 -0.61662,1.48057 -1.37287,2.84683 -2.38477,4.24024 -5.20014,6.8531 -8.57133,10.29706 -10.35351,10.48437 -1.01839,0.10704 -1.52118,-0.99929 -1.77539,-3.41797 -0.0535,-0.5092 -0.10534,-1.01809 -0.0449,-1.66797 -0.24732,-3.57774 1.32034,-10.69321 4.57812,-21.33203 1.5016,-5.30602 2.32705,-8.48024 2.47461,-9.52539 l -0.0664,-0.63672 c -0.12041,-1.14569 -0.87848,-2.22536 -2.0039,-3.13672 -1.25273,-0.89797 -2.71899,-1.3871 -4.55469,-1.70898 -0.63649,0.0669 -1.28768,0.007 -1.79687,0.0606 -6.11035,0.64222 -10.01062,7.61561 -11.98243,20.69336 -0.71754,4.19398 -0.83781,7.93988 -0.47656,11.37695 0.49505,4.71006 1.78635,8.43463 4.13086,11.14844 2.34451,2.71379 5.5615,3.91998 9.64844,3.61914 0.52258,0.0738 1.03216,0.0206 1.41406,-0.0195 1.14569,-0.12042 2.26433,-0.49498 3.45703,-1.39258 2.17096,-1.38653 4.6761,-4.48183 7.51758,-9.28516 1.08567,-1.91598 2.21272,-3.45034 3.22461,-4.84375 l 0.86328,2.09766 c 0.85057,1.96988 2.05658,3.644 3.77148,5.26562 1.71491,1.62163 3.48911,2.59345 5.35157,3.16992 1.33988,0.5027 2.89555,0.59747 4.67773,0.41016 1.78218,-0.18731 3.28219,-0.60275 4.48828,-1.37305 1.21947,-0.64299 2.38585,-1.79468 3.65235,-3.21484 0.62032,-0.57584 2.47908,-3.50458 5.39062,-8.33594 0.13731,0.47393 0.26302,0.95566 0.41797,1.41797 1.13842,3.48409 2.42417,5.92422 3.87109,7.44531 0.89759,1.19271 2.27749,2.07772 3.91211,2.93555 1.63463,0.85784 3.35576,1.31938 5.05078,1.52734 0.91785,0.16093 1.82341,0.19493 2.8418,0.0879 3.56437,-0.37463 6.85407,-2.13641 9.74219,-5.27148 1.41939,6.15736 3.70224,11.96747 6.5957,17.45508 -1.20609,0.77029 -2.89413,1.84791 -4.95117,3.09375 -2.04366,1.37314 -3.73141,2.45041 -4.9375,3.2207 -1.33339,0.78367 -3.27757,1.88945 -5.70312,3.30274 -2.53948,1.55396 -5.34621,3.00746 -8.26758,4.60156 -4.9918,2.71265 -9.59567,4.22673 -13.92383,4.68164 -4.45546,0.46829 -7.99835,-0.18911 -10.78516,-2.21289 -2.77343,-1.89649 -4.36814,-4.81776 -4.76953,-8.63672 -0.0535,-0.50919 -0.10699,-1.01844 -0.0332,-1.54102 -0.0937,-0.89109 -0.16038,-1.52831 -0.31445,-1.76953 -0.15407,-0.2412 -0.68934,-0.4416 -1.45313,-0.36133 l -0.38281,0.0391 c -4.32816,0.4549 -7.98659,2.38412 -10.86133,5.64648 -2.86136,3.38966 -4.04035,6.86107 -3.65234,10.55274 0.26759,2.54597 1.28499,4.8849 3.28125,6.73437 2.00964,1.97676 4.85617,3.3494 8.68164,4.23438 3.57086,0.91173 7.3174,1.03391 11.26367,0.61914 4.58276,-0.48167 9.46737,-1.76749 14.7539,-4.125 5.28654,-2.35751 9.68062,-4.62209 13.15821,-7.04688 3.49097,-2.29749 7.69234,-5.18342 12.47656,-8.64648 4.78422,-3.46306 7.89414,-5.72048 9.46875,-6.65821 1.8487,2.89462 4.54802,5.31212 8.33984,7.10157 3.67791,1.93012 7.47562,2.56125 11.42188,2.14648 3.81896,-0.40139 7.2631,-1.9213 10.33203,-4.56055 3.89313,-3.3694 5.70998,-6.90759 5.30859,-10.72656 -0.32111,-3.05517 -2.1165,-5.44082 -5.14453,-7.31055 -3.15532,-1.85635 -6.96641,-2.61281 -11.42187,-2.14453 -4.45546,0.46829 -8.91808,2.09513 -13.41406,4.62696 -1.41978,-3.71193 -2.35818,-7.7317 -2.83985,-12.31446 -0.80278,-7.63793 -0.50023,-15.77864 1.18945,-24.19336 1.56238,-8.40133 3.62889,-15.69717 6.22266,-21.632809 l 2.05078,-4.976562 5.16602,-13.285157 c 1.88349,-5.346166 2.78243,-9.045252 2.56836,-11.082031 -0.1338,-1.272989 -0.76394,-2.364623 -1.63477,-3.302734 -0.84407,-0.683515 -2.06992,-1.327086 -3.53711,-1.816406 -1.18583,-0.261478 -2.29232,-0.458463 -3.30859,-0.484375 z m 105.93945,17.417968 c -0.33695,0.0037 -0.68118,0.02375 -1.03125,0.06055 -1.27299,0.133797 -2.25066,0.621463 -2.96094,1.210938 -0.83757,0.602854 -1.73562,1.855268 -2.58007,3.617187 -6.16578,12.360212 -9.78863,34.234871 -10.87891,65.496091 -0.28901,5.8221 -0.16115,10.70057 0.24023,14.51953 0.50843,4.83735 1.45172,7.69778 2.81836,8.45508 0.69002,0.4423 1.86304,0.57657 3.39063,0.41602 1.27299,-0.1338 2.53248,-0.39414 3.75195,-1.03711 1.10555,-0.50232 1.81591,-1.09226 1.99024,-1.88282 0.20106,-0.53595 0.24072,-2.59925 0.38867,-6.08984 0.24237,-7.49037 0.92166,-14.51186 2.02148,-21.19141 1.1132,-6.55225 2.59371,-13.27176 4.47071,-19.90429 0.9511,1.7019 2.13037,3.12121 3.39648,4.14648 1.7149,1.62163 4.21436,2.13166 7.26953,1.81055 2.03678,-0.21408 4.03275,-0.80948 6.23047,-1.94141 2.2111,-1.00463 4.1137,-2.49237 5.97656,-4.36133 1.62162,-1.7149 3.29086,-4.20673 4.75196,-7.44922 1.46105,-3.24248 2.49948,-6.82653 3.37109,-10.77929 0.87161,-3.95276 1.1467,-7.455857 0.79883,-10.765625 -0.40139,-3.818964 -1.61176,-6.7807 -3.63477,-8.884765 -2.30438,-2.331899 -4.87165,-3.478238 -7.54492,-3.197266 -5.72846,0.602086 -11.65756,6.630253 -17.67578,17.945306 l 0.85742,-4.080071 c 1.4347,-5.942521 2.06485,-9.739993 1.9043,-11.267578 -0.0937,-0.891093 -0.56863,-1.74353 -1.43946,-2.681641 -1.50053,-1.418923 -3.52413,-2.190255 -5.88281,-2.164063 z m -247.94531,6.320313 -0.63672,0.06641 c -3.18247,0.334491 -4.57619,1.768475 -4.30859,4.314453 0.10703,1.018389 0.46774,2.009736 1.08398,2.97461 0.61623,0.96487 1.01913,2.337648 1.17969,3.865234 0.33449,3.182466 -0.33743,9.045236 -1.87305,17.701166 l -1.40039,7.48242 -1.60156,0.6836 c -10.62659,4.20582 -16.08759,7.35433 -16.66406,9.21679 -0.10056,0.26797 -0.0736,0.52275 -0.0469,0.77735 0.12042,1.14569 0.60895,2.1238 1.73438,3.03515 1.12542,0.91136 2.32466,1.29982 3.59765,1.16602 0.25459,-0.0268 0.6367,-0.0669 1.11914,-0.375 5.41383,-2.37089 8.63005,-3.60976 9.64844,-3.7168 l 0.14063,0.11328 c 0.0803,0.7638 -0.11519,2.586 -0.47071,5.32618 -1.03292,7.31604 -1.20744,12.9987 -0.77929,17.07226 0.50842,4.83736 2.04229,8.40809 4.58789,10.58594 1.7149,1.62163 3.84534,2.29943 6.13672,2.05859 0.76379,-0.0803 1.3867,-0.27588 1.86914,-0.58398 1.20609,-0.77029 1.58801,-3.25422 1.14648,-7.45508 -0.56195,-5.34655 -0.0181,-11.19668 1.78516,-17.30664 0.63687,-2.51234 1.71651,-5.71472 3.22461,-9.73437 1.38079,-4.00628 2.42713,-6.30448 2.88281,-6.86719 0.11393,-0.14069 3.35664,-1.12376 9.86914,-2.83789 6.3852,-1.70076 9.75458,-2.69912 9.98242,-2.98047 0.22783,-0.28134 0.42852,-0.81698 0.375,-1.32617 -0.0937,-0.89109 -0.69558,-1.72791 -1.56641,-2.66602 -1.70152,-1.49433 -4.21436,-2.13166 -7.26953,-1.81055 -4.83735,0.50843 -7.28241,0.50726 -7.33593,-0.002 0.99889,-3.96614 1.38693,-7.61015 1.03906,-10.91992 -0.29435,-2.80057 -1.22368,-5.5344 -2.79102,-8.201169 -1.86207,-3.021916 -4.03912,-5.367822 -6.67187,-7.150391 -2.63275,-1.782569 -5.2863,-2.532235 -7.98633,-2.505859 z m 303.2832,0.685547 c 0.25447,-0.02675 0.56156,0.45569 1.03711,1.30664 0.33475,0.737047 0.53076,1.359601 0.59766,1.996094 0.25421,2.418675 -0.37055,5.059389 -1.75781,7.779297 -1.51462,2.733295 -3.35053,4.855665 -5.52149,6.242185 -0.35514,0.29473 -0.7236,0.46313 -0.96484,0.61719 -0.24109,0.15406 -0.48207,0.30693 -0.60938,0.32031 -0.24109,0.15406 -0.24052,0.15466 -0.2539,0.0273 -0.0268,-0.25459 0.20683,-1.69534 0.98437,-4.09375 0.65027,-2.38504 1.22743,-4.24635 1.85742,-5.599613 0.57648,-1.862464 1.53545,-3.765665 2.6211,-5.681641 1.08568,-1.915979 1.75518,-2.887304 2.00976,-2.914062 z m -34.36914,1.552734 c 0.15418,0.241192 0.3495,0.863503 0.72461,1.982422 0.0535,0.509196 0.24756,1.133038 0.31445,1.769531 0.3345,3.182472 -0.0283,7.080909 -1.07421,11.824219 -1.04592,4.74331 -2.54029,8.89206 -4.45704,12.69727 -2.04404,3.81857 -4.16243,5.71366 -6.19921,5.92773 -0.5092,0.0535 -1.01713,0.10702 -1.42579,-0.10742 -1.4538,-0.36202 -2.42649,-1.03221 -2.88867,-1.75586 -0.46217,-0.72366 -0.70858,-1.85523 -0.86914,-3.38281 -0.0401,-0.3819 -0.17525,-1.65653 -0.27539,-3.83399 l 1.3086,-3.48242 c 0.80431,-2.14382 2.27787,-5.25984 4.44921,-9.0918 2.17135,-3.831954 3.9279,-6.718106 5.29493,-8.406247 0.79743,-0.98475 1.73572,-1.855733 2.67382,-2.726562 0.93814,-0.870833 1.66076,-1.333203 2.16993,-1.386719 z M 288.83398,157.1582 c 3.0827,-0.10229 5.24579,0.65535 6.30079,2.1211 0.33486,0.73703 0.658,1.34753 0.73828,2.11132 0.26759,2.54598 -1.28897,4.89593 -4.66602,7.05274 -1.92974,1.23247 -3.91278,1.95555 -5.82226,2.15625 -2.67328,0.28097 -5.1721,-0.22716 -7.38282,-1.66797 -2.21071,-1.44081 -3.95264,-3.31721 -5.11133,-5.76953 5.3068,-3.38928 10.23825,-5.4533 14.56641,-5.9082 0.47737,-0.0502 0.93657,-0.0811 1.37695,-0.0957 z"
         transform="matrix(0.26313392,0.02765649,-0.02765649,0.26313392,-2.6451341,19.108336)"
         id="path20"
         inkscape:connector-curvature="0" />
    </g>
  </g>
</svg>
